<svg id="Layer_1" data-name="Layer 1" xmlns="http://www.w3.org/2000/svg" viewBox="0 0 979.41 323.16"><defs><style>.cls-1{fill:#e7e6e6;}.cls-2{fill:#7963ff;}</style></defs><path class="cls-1" d="M405.5,125.71H386.9L378,53a31.85,31.85,0,0,1-.49-6.58h-.17a23.85,23.85,0,0,1-1,6.91l-24,72.4H334.42L308.09,54.3a17.25,17.25,0,0,1-1-6.09l-.16-.33a45.87,45.87,0,0,1-.33,6.42l-7.9,71.41H281.6L294.27,13h17.27l31.6,84.41a19.4,19.4,0,0,1,1,6.74h.17a23,23,0,0,1,.82-6.74L373.58,13h17.93Z"/><path class="cls-1" d="M494.84,115.67l-4.44,8.89a12.14,12.14,0,0,1-5.43,1.15,17.3,17.3,0,0,1-9-2.39,11.4,11.4,0,0,1-5.34-6.83q-7.08,9.23-23.2,9.22-11.68,0-19.42-6.17t-7.73-18q0-23,30.6-24.84l18.92-1.16V73.06q0-9.89-5.92-14.48T445.32,54q-11.69,0-20.24,4.28l1.48-13.33q8.38-4.61,23.53-4.61,36.69,0,36.69,31.76V106Q486.78,115.19,494.84,115.67Zm-25-11.68V86.88l-18.59,1.81q-13.17,1.47-13.16,11.68a10.56,10.56,0,0,0,3.53,8.47q3.54,3,10.12,3Q463.91,111.89,469.83,104Z"/><path class="cls-1" d="M547.83,125.71H532.19L501.92,44.92h19.41l17.94,51.17a23.33,23.33,0,0,1,1.65,7.41h.16a25.32,25.32,0,0,1,1.15-7.41l16.95-51.17h17.11Z"/><path class="cls-1" d="M654.45,109.58l-3.13,13.66q-6.26,2.48-19.25,2.47-22.38,0-33.73-10.86T587,82.76q0-18.75,9.38-30.6t28.3-11.85q16.29,0,25.09,8.15t8.8,22.13a86.08,86.08,0,0,1-1.64,16.12h-51.5a7.8,7.8,0,0,0-.17,1.81q0,11.69,7.9,17.53t21.55,5.84A73.8,73.8,0,0,0,654.45,109.58ZM605.58,74h35.87a31.33,31.33,0,0,0,.33-4.77,14.43,14.43,0,0,0-4.53-11.11Q632.74,54,624.67,54q-8.73,0-13.66,5.68A23.24,23.24,0,0,0,605.58,74Z"/><path class="cls-1" d="M697.56,125.71H680.61V63.35q0-10-8.39-10.53l4.44-8.72q2-1.32,6.91-1.32,6.42,0,10.12,3.54a12.46,12.46,0,0,1,3.7,9.46q9.89-13,20.74-13,9.71,0,9.7,9.54L722.4,64.17q-1.47-3.95-8.39-4-8.22,0-16.45,6.91Z"/><path class="cls-1" d="M767,20.07a10.32,10.32,0,0,1-3.12,7.57,10.51,10.51,0,0,1-7.74,3.13,10.22,10.22,0,0,1-7.65-3.13,10.44,10.44,0,0,1-3-7.57,10.52,10.52,0,0,1,3.12-7.73,10.34,10.34,0,0,1,7.57-3.13A10.67,10.67,0,0,1,767,20.07Zm-2.46,105.64H747.58V44.92l16.95-2.14Z"/><path class="cls-1" d="M846.3,109.91l-2,13.17q-4.94,2.63-15.47,2.63-21.72,0-31.92-11.77t-10.2-30.35q0-18.77,10.28-31t32.5-12.26q10.86,0,15.63,2.47l1,13.33Q840.86,54,831.49,54q-14,0-20.48,8t-6.5,21.31q0,28.62,28.3,28.63Q841.36,111.89,846.3,109.91Z"/><path class="cls-1" d="M885.46,125.71h-17V3.62l17-3.62Zm53.31,0H917.71L885.46,84.24l31.1-39.32h21.55L904.87,83.26Z"/><path class="cls-1" d="M361.89,306.21l-1.64,13.66q-6.58,3.28-20.07,3.29-15.65,0-27.15-4.53A44,44,0,0,1,294.76,306a53.71,53.71,0,0,1-9.95-18.34,74.85,74.85,0,0,1-3.21-22.54q0-26.17,15.22-42.87t44-16.7q12.51,0,19.25,3.13l1.65,13.65a71.92,71.92,0,0,0-20.07-2.46q-20.58,0-30.94,12.17t-10.36,32.75q0,20.56,10.12,32.33t30,11.76A75.76,75.76,0,0,0,361.89,306.21Z"/><path class="cls-1" d="M448.19,311.48q-9,11.68-29.37,11.68t-29.61-11.68Q380,299.79,380,280.54t9.22-31q9.21-11.76,29.61-11.77t29.37,11.77q9,11.76,9,31T448.19,311.48Zm-29.53-2.14q20.73,0,20.73-28.8,0-29.12-20.73-29.12-20.9,0-20.9,29.12Q397.76,309.34,418.66,309.34Z"/><path class="cls-1" d="M553.75,312.79l-4.61,8.89c-1.21,1-3.24,1.48-6.09,1.48q-11.52,0-13.82-9.54-8.38,9.54-22.71,9.54-16.62,0-25.58-10.94T472,283q0-21.22,11.85-33.24t32.08-12c5.6,0,9.76.44,12.51,1.32V198.77L545.35,195V302.92a10.64,10.64,0,0,0,2.23,7A8,8,0,0,0,553.75,312.79Zm-25.34-10.53v-49.2a31.52,31.52,0,0,0-10.7-1.48q-14.15,0-20.9,8t-6.74,22q0,13,5.59,20.24T511.79,309Q522.16,309,528.41,302.26Z"/><path class="cls-1" d="M634.37,307l-3.13,13.66Q625,323.16,612,323.16q-22.38,0-33.73-10.86t-11.35-32.09q0-18.75,9.38-30.6t28.3-11.85q16.29,0,25.09,8.15t8.8,22.13a86.08,86.08,0,0,1-1.64,16.12h-51.5a7.8,7.8,0,0,0-.17,1.81q0,11.68,7.9,17.53t21.55,5.84A73.8,73.8,0,0,0,634.37,307ZM585.5,271.49h35.87a31.33,31.33,0,0,0,.33-4.77,14.46,14.46,0,0,0-4.52-11.11q-4.53-4.19-12.59-4.19-8.73,0-13.66,5.67A23.29,23.29,0,0,0,585.5,271.49Z"/><path class="cls-1" d="M659.87,320.69V198.11L676.66,195v52.16A36.78,36.78,0,0,1,702,237.76q16.61,0,24.1,11t7.49,29.45q0,44.92-45.58,44.92Q669.91,323.16,659.87,320.69Zm16.79-61.21v48.38a37.19,37.19,0,0,0,11,1.31q14.8,0,21.47-7.16t6.67-22.29q0-27.32-20.08-27.31A29.65,29.65,0,0,0,676.66,259.48Z"/><path class="cls-1" d="M822.93,313.12,818.49,322a12.14,12.14,0,0,1-5.43,1.15,17.3,17.3,0,0,1-9-2.39,11.4,11.4,0,0,1-5.34-6.83q-7.08,9.22-23.2,9.22-11.7,0-19.42-6.17t-7.74-18q0-23,30.61-24.84L797.92,273V270.5q0-9.87-5.92-14.47t-18.59-4.61q-11.68,0-20.24,4.28l1.48-13.33q8.39-4.6,23.53-4.61,36.69,0,36.69,31.76v33.89Q814.87,312.64,822.93,313.12Zm-25-11.68V284.33l-18.59,1.81q-13.17,1.47-13.16,11.68a10.56,10.56,0,0,0,3.53,8.47q3.54,3,10.12,3Q792,309.34,797.92,301.44Z"/><path class="cls-1" d="M839.55,320.69l-2-14.32q7.89,3,19.08,3,9.54,0,13.82-2.39a8.12,8.12,0,0,0,4.28-7.65,8,8,0,0,0-3.62-7.16q-3.61-2.38-12.67-5.35a77.62,77.62,0,0,1-7.9-3.12,40.23,40.23,0,0,1-6.74-4.2,16.68,16.68,0,0,1-5.43-6.91,24.94,24.94,0,0,1-1.81-9.95q0-12.18,8.56-18.51t25.17-6.34a56.87,56.87,0,0,1,16.62,2.14l1.48,13.66a51.3,51.3,0,0,0-15.8-2.14q-17.76,0-17.77,9.87a7.42,7.42,0,0,0,.66,3.21,9.22,9.22,0,0,0,1.48,2.3,9.63,9.63,0,0,0,2.8,1.9,30.88,30.88,0,0,0,3.13,1.39l4.11,1.48q3,1.08,4.44,1.57c3.18,1.21,5.79,2.3,7.82,3.29a30.45,30.45,0,0,1,6.33,4.28,17.15,17.15,0,0,1,4.94,7.07A28.63,28.63,0,0,1,892.2,298q0,25.18-33.73,25.18A70.21,70.21,0,0,1,839.55,320.69Z"/><path class="cls-1" d="M975.29,307l-3.12,13.66q-6.25,2.47-19.25,2.47-22.38,0-33.73-10.86t-11.36-32.09q0-18.75,9.38-30.6t28.3-11.85q16.29,0,25.1,8.15t8.8,22.13a85.3,85.3,0,0,1-1.65,16.12h-51.5a7.89,7.89,0,0,0-.16,1.81q0,11.68,7.9,17.53t21.55,5.84A73.67,73.67,0,0,0,975.29,307Zm-48.86-35.54H962.3a32.76,32.76,0,0,0,.32-4.77,14.42,14.42,0,0,0-4.52-11.11q-4.53-4.19-12.59-4.19-8.71,0-13.65,5.67A23.23,23.23,0,0,0,926.43,271.49Z"/><path class="cls-2" d="M198.75,161.6l-47.82,47.82,18.93,18.93L222,176.21A20.66,20.66,0,0,0,222,147L169.82,94.81l-18.93,18.93Z"/><path class="cls-2" d="M28.27,160.81l96.4-96.31-19-19L7.46,143.76A24.42,24.42,0,0,0,0,159.47a23,23,0,0,0,6.74,17.7L107.24,277.63l18.92-18.93Z"/></svg>